<svg width="158" height="158" viewBox="0 0 158 158" fill="none" xmlns="http://www.w3.org/2000/svg">
<g clip-path="url(#clip0_290_366)">
<path d="M158 158H0V0H158V158Z" fill="#14141A"/>
<rect x="18" y="15" width="124" height="124" fill="#FF0000" stroke="#FF0000" stroke-width="6"/>
<g clip-path="url(#clip1_290_366)">
<g clip-path="url(#clip2_290_366)">
<path d="M86.0603 60.1411C89.2694 60.1411 91.8708 57.5397 91.8708 54.3308C91.8708 51.1219 89.2694 48.5205 86.0603 48.5205C82.8514 48.5205 80.25 51.1219 80.25 54.3308C80.25 57.5397 82.8514 60.1411 86.0603 60.1411Z" fill="white"/>
<path d="M47.75 30.0891V111.473C47.75 114.457 50.1683 116.875 53.1516 116.875H56.5247V24.6875H53.1516C50.1684 24.6875 47.75 27.1058 47.75 30.0891Z" fill="white"/>
<path d="M106.157 24.6875H61.9297V116.875H106.157C109.141 116.875 111.559 114.457 111.559 111.473V30.0891C111.559 27.1058 109.141 24.6875 106.157 24.6875ZM88.7684 65.2138V98.4414H73.34V93.0398H83.3669V86.9659H73.34V81.5644H83.3669V65.2138C78.4853 64.0017 74.8558 59.5841 74.8558 54.3328C74.8558 48.1505 79.8853 43.1208 86.0677 43.1208C92.25 43.1208 97.2797 48.1505 97.2797 54.3328C97.2797 59.5841 93.6502 64.0017 88.7684 65.2138Z" fill="white"/>
</g>
</g>
</g>
<defs>
<clipPath id="clip0_290_366">
<rect width="158" height="158" fill="white"/>
</clipPath>
<clipPath id="clip1_290_366">
<rect width="100" height="100" fill="white" transform="translate(29 20)"/>
</clipPath>
<clipPath id="clip2_290_366">
<rect width="100" height="100" fill="white" transform="translate(29 20)"/>
</clipPath>
</defs>
</svg>
