<svg width="158" height="158" viewBox="0 0 158 158" fill="none" xmlns="http://www.w3.org/2000/svg">
<g clip-path="url(#clip0_290_325)">
<path d="M158 158H0V0H158V158Z" fill="#14141A"/>
<rect x="18" y="15" width="124" height="124" fill="#FF0000" stroke="#FF0000" stroke-width="6"/>
<g clip-path="url(#clip1_290_325)">
<g clip-path="url(#clip2_290_325)">
<path d="M79 29.375C79 29.375 81.0412 39.5361 99.3811 73.0472C117.715 106.548 125.868 110.621 125.875 110.625H32.125C32.125 110.625 41.2224 104.531 59.0919 72.0309C76.9613 39.5309 79 29.375 79 29.375ZM69.4969 97.3956L86.3608 105.938C89.9811 105.419 93.3239 104.055 96.1875 102.051L69.4694 88.3289L69.4969 97.3956ZM88.5306 66.7438C85.0134 64.9241 81.1261 64.9198 77.7778 66.2784L62.7845 72.9617C61.2225 75.9723 60.3162 79.3733 60.25 82.9806L69.4694 78.728L69.4723 86.7678C71.9983 88.0283 74.4959 89.3614 77.0363 90.5887C83.6611 93.7611 91.6058 90.9652 94.7806 84.3433C97.9536 77.7203 95.1552 69.7802 88.5306 66.7438ZM82.8742 73.2134C83.6562 73.2237 84.4264 73.4041 85.1309 73.7414C86.4211 74.36 87.412 75.463 87.8867 76.8069C88.3611 78.1508 88.2802 79.6281 87.6623 80.9131C86.4506 83.6936 83.1569 84.7197 80.4725 83.4369L80.4588 83.4278L69.4892 78.7189L71.5797 77.7712C74.8439 76.3642 79.2645 73.1667 82.8742 73.2134Z" fill="white"/>
</g>
</g>
</g>
<defs>
<clipPath id="clip0_290_325">
<rect width="158" height="158" fill="white"/>
</clipPath>
<clipPath id="clip1_290_325">
<rect width="100" height="100" fill="white" transform="translate(29 20)"/>
</clipPath>
<clipPath id="clip2_290_325">
<rect width="100" height="100" fill="white" transform="translate(29 20)"/>
</clipPath>
</defs>
</svg>
